<?xml version="1.0" standalone="no"?>
<!DOCTYPE svg PUBLIC "-//W3C//DTD SVG 20010904//EN"
 "http://www.w3.org/TR/2001/REC-SVG-20010904/DTD/svg10.dtd">
<svg version="1.0" xmlns="http://www.w3.org/2000/svg"
 width="512.000000pt" height="512.000000pt" viewBox="0 0 512.000000 512.000000"
 preserveAspectRatio="xMidYMid meet">
<metadata>
Created by potrace 1.14, written by Peter Selinger 2001-2017
</metadata>
<g transform="translate(0.000000,512.000000) scale(0.100000,-0.100000)"
fill="#000000" stroke="none">
<path d="M2816 5005 c-56 -19 -102 -60 -127 -111 -22 -46 -22 -52 -22 -435 l0
-387 27 -46 c29 -50 74 -87 125 -105 23 -7 152 -11 395 -11 l361 0 -1 -247
c-1 -137 -2 -251 -3 -255 -1 -3 -352 -6 -781 -6 l-780 0 -1 32 c0 17 -1 68 -1
113 -1 98 -19 137 -70 150 -18 5 -248 9 -511 8 l-477 -1 -32 -31 -31 -31 -1
-118 -1 -119 -287 -2 c-188 -1 -293 -5 -307 -13 -33 -17 -49 -50 -55 -115 -4
-33 -9 -71 -11 -85 -3 -14 -7 -50 -10 -80 -3 -30 -7 -71 -10 -90 -5 -36 -11
-93 -20 -182 -5 -51 -10 -91 -20 -168 -2 -19 -7 -60 -10 -90 -3 -30 -8 -71
-10 -90 -9 -72 -15 -116 -20 -170 -3 -30 -7 -71 -10 -90 -6 -44 -17 -137 -20
-170 -6 -65 -16 -148 -21 -180 -2 -19 -7 -53 -9 -75 -2 -22 -7 -69 -10 -105
-4 -35 -8 -71 -10 -80 -2 -8 -6 -44 -9 -80 -4 -36 -9 -76 -11 -90 -16 -99 -20
-213 -20 -645 l0 -490 30 -54 c32 -58 89 -111 151 -138 37 -17 172 -18 2354
-19 2222 -1 2317 -1 2375 17 78 24 136 73 172 147 l28 57 0 485 c0 424 -5 582
-20 640 -2 8 -7 45 -10 82 -3 37 -7 75 -9 85 -2 10 -7 50 -11 88 -4 39 -9 86
-12 105 -2 19 -6 51 -8 70 -2 19 -6 60 -10 90 -10 92 -15 133 -20 185 -3 28
-8 61 -10 75 -2 14 -7 54 -10 90 -3 36 -8 76 -10 90 -2 14 -6 50 -10 80 -3 30
-7 69 -10 85 -2 17 -6 59 -10 95 -4 36 -8 76 -10 90 -2 14 -7 52 -10 85 -3 33
-8 76 -10 95 -3 19 -7 58 -10 85 -3 28 -10 82 -15 120 -5 39 -12 97 -15 130
-8 70 -15 86 -50 109 -24 16 -74 18 -543 19 l-517 2 0 253 -1 252 366 0 c363
0 365 0 416 24 54 25 87 60 110 116 19 44 21 760 2 822 -6 21 -27 55 -46 74
-70 73 -14 68 -939 70 -633 1 -840 -2 -867 -11z m1659 -196 c4 -5 8 -459 5
-666 l0 -33 -805 0 c-760 0 -805 1 -806 18 -4 70 0 672 4 679 7 10 1591 12
1602 2z m-2670 -1874 l0 -570 -357 0 -358 -1 -1 26 c-1 30 -1 1091 0 1105 1 6
127 10 359 10 l357 -1 0 -569z m-939 266 c20 -1 21 -3 21 -416 0 -228 -3 -415
-6 -416 -3 -1 -23 -2 -44 -4 -97 -8 -139 -99 -78 -167 l29 -33 648 0 c721 -1
695 -3 720 66 24 72 -29 134 -113 132 l-33 -1 -1 87 c-2 296 1 744 5 748 7 8
2666 6 2674 -1 3 -4 7 -12 8 -19 2 -14 15 -137 19 -182 2 -16 6 -48 8 -70 7
-48 15 -121 22 -190 3 -27 10 -84 15 -125 5 -41 12 -97 15 -125 3 -27 7 -66
10 -85 2 -19 7 -62 10 -95 4 -33 8 -73 10 -90 2 -16 6 -55 10 -85 3 -30 7 -66
10 -80 3 -14 7 -52 10 -85 3 -33 7 -71 9 -85 3 -14 8 -54 11 -90 4 -36 8 -76
10 -90 1 -14 6 -54 10 -90 4 -36 9 -73 10 -82 2 -9 6 -49 10 -90 3 -40 8 -81
11 -90 3 -10 2 -19 -3 -19 -25 -4 -4670 -4 -4681 -1 -7 2 -10 12 -8 21 3 9 7
45 11 81 3 36 8 76 10 90 2 14 7 52 10 85 7 70 15 139 20 175 2 14 7 56 10 95
4 38 8 77 10 87 2 9 6 48 10 85 3 37 8 79 10 93 3 14 7 52 10 85 3 33 8 71 10
85 2 14 7 54 11 90 3 36 7 72 9 80 2 8 6 44 9 80 8 76 12 106 26 215 5 44 12
105 15 135 3 30 7 69 9 85 2 17 7 64 11 106 8 85 12 95 39 100 15 3 313 3 412
0z m4051 -2456 c2 -359 1 -381 -16 -402 -11 -13 -30 -27 -42 -31 -29 -11
-4587 -9 -4610 1 -8 4 -23 21 -32 36 -15 26 -17 69 -17 403 l0 373 2358 0
2357 0 2 -380z"/>
<path d="M2620 2883 c-69 -28 -73 -139 -7 -174 27 -15 277 -20 325 -7 34 10
72 57 72 91 0 28 -28 75 -53 89 -31 17 -297 18 -337 1z"/>
<path d="M3289 2892 c-42 -5 -74 -46 -74 -97 0 -50 23 -81 69 -93 50 -13 291
-8 319 7 67 36 63 154 -6 177 -22 8 -258 12 -308 6z"/>
<path d="M3933 2892 c-34 -5 -73 -58 -73 -99 0 -38 44 -92 77 -94 107 -8 282
-3 305 8 63 31 77 102 29 155 l-28 32 -144 0 c-79 1 -154 0 -166 -2z"/>
<path d="M2553 2362 c-27 -4 -69 -46 -75 -75 -7 -37 11 -84 39 -103 24 -16 50
-18 195 -19 154 0 169 2 195 21 36 28 50 73 33 114 -24 57 -46 64 -214 64 -83
1 -161 0 -173 -2z"/>
<path d="M3262 2355 c-54 -23 -79 -83 -56 -131 26 -53 44 -58 222 -59 151 -2
166 0 195 19 40 27 55 74 37 116 -24 57 -45 63 -216 65 -97 1 -164 -3 -182
-10z"/>
<path d="M3991 2357 c-82 -21 -97 -142 -22 -178 23 -12 69 -15 197 -14 l167 1
28 32 c39 44 39 89 0 131 -16 17 -37 31 -48 32 -83 5 -299 3 -322 -4z"/>
<path d="M2414 1812 c-49 -39 -53 -107 -10 -151 26 -26 27 -26 204 -29 104 -2
189 1 204 7 52 20 77 84 52 136 -23 50 -46 55 -247 55 -157 0 -185 -3 -203
-18z"/>
<path d="M3230 1817 c-70 -35 -61 -151 13 -177 17 -5 104 -10 194 -10 184 0
215 8 238 63 18 43 10 77 -25 110 l-30 27 -183 0 c-126 0 -190 -4 -207 -13z"/>
<path d="M4027 1810 c-55 -43 -43 -140 19 -166 40 -17 338 -20 380 -4 69 27
87 108 35 161 l-29 29 -190 0 c-175 0 -191 -1 -215 -20z"/>
<path d="M1921 809 c-39 -8 -56 -22 -71 -58 -16 -39 -1 -89 34 -115 27 -21 36
-21 669 -22 685 -1 677 -1 709 48 23 35 15 98 -17 126 -14 12 -31 22 -38 23
-54 5 -1263 3 -1286 -2z"/>
</g>
</svg>
